<?xml version="1.0" encoding="UTF-8"?>
<svg version="1.1" xmlns="http://www.w3.org/2000/svg" width="751" height="604">
<path d="M0 0 C247.83 0 495.66 0 751 0 C751 199.32 751 398.64 751 604 C503.17 604 255.34 604 0 604 C0 404.68 0 205.36 0 0 Z " fill="#FEFEFE" transform="translate(0,0)"/>
<path d="M0 0 C4.62 0 9.24 0 14 0 C14 2.31 14 4.62 14 7 C15.98 7 17.96 7 20 7 C20 8.98 20 10.96 20 13 C18.35 13.33 16.7 13.66 15 14 C14.67 16.31 14.34 18.62 14 21 C16.64 21 19.28 21 22 21 C22 22.65 22 24.3 22 26 C19.69 26 17.38 26 15 26 C15 28.31 15 30.62 15 33 C16.65 33 18.3 33 20 33 C20 34.98 20 36.96 20 39 C18.35 39 16.7 39 15 39 C15 41.64 15 44.28 15 47 C17.31 47 19.62 47 22 47 C25.42857143 54.28571429 25.42857143 54.28571429 25 59 C26.65 59 28.3 59 30 59 C30 57.02 30 55.04 30 53 C31.65 53 33.3 53 35 53 C35 51.35 35 49.7 35 48 C38.3 48 41.6 48 45 48 C45 53.61 45 59.22 45 65 C46.98 65 48.96 65 51 65 C51 68.3 51 71.6 51 75 C52.32 75 53.64 75 55 75 C55 71.7 55 68.4 55 65 C56.65 64.67 58.3 64.34 60 64 C60 60.7 60 57.4 60 54 C58.68 54 57.36 54 56 54 C56 55.65 56 57.3 56 59 C54.02 59 52.04 59 50 59 C50 55.37 50 51.74 50 48 C53.96 48 57.92 48 62 48 C62 49.65 62 51.3 62 53 C63.32 53 64.64 53 66 53 C66 50.03 66 47.06 66 44 C63.36 44 60.72 44 58 44 C57.95745644 42.00045254 57.95919217 39.99958364 58 38 C59 37 59 37 62.5625 36.9375 C63.696875 36.958125 64.83125 36.97875 66 37 C66 36.34 66 35.68 66 35 C64.68 35 63.36 35 62 35 C62 33.35 62 31.7 62 30 C63.32 29.67 64.64 29.34 66 29 C66 28.01 66 27.02 66 26 C63.69 26 61.38 26 59 26 C59 22.37 59 18.74 59 15 C62.96 15 66.92 15 71 15 C71.495 17.475 71.495 17.475 72 20 C70.35 20.33 68.7 20.66 67 21 C67 22.65 67 24.3 67 26 C68.65 26 70.3 26 72 26 C72 27.65 72 29.3 72 31 C80.91 31 89.82 31 99 31 C99 34.63 99 38.26 99 42 C99.969375 41.979375 100.93875 41.95875 101.9375 41.9375 C105 42 105 42 106 43 C106.28762639 45.92420165 106.49015648 48.15375044 106 51 C103.875 53.25 103.875 53.25 101 55 C100.05125 55.70125 99.1025 56.4025 98.125 57.125 C94.689212 59.1864728 91.870329 60.07112104 88 61 C88 58.69 88 56.38 88 54 C86.35 54 84.7 54 83 54 C83.15662109 54.87011719 83.15662109 54.87011719 83.31640625 55.7578125 C83.58860325 58.37608842 83.58082754 60.42655242 83 63 C80.51720722 65.8461283 77.33849132 67.3112183 74 69 C73.42620605 69.29729004 72.85241211 69.59458008 72.26123047 69.90087891 C68.95732758 71.61141019 65.63328307 73.27233144 62.28515625 74.89453125 C59.36353872 76.31344942 56.48472341 77.79170696 53.62109375 79.32421875 C52.90961182 79.69885254 52.19812988 80.07348633 51.46508789 80.45947266 C50.10485239 81.17732618 48.75072748 81.90692089 47.40405273 82.64990234 C44.58466053 84.11761138 42.38040393 84.99736197 39.18359375 85.01953125 C34.45142252 83.50407519 30.11453806 81.36549381 25.6875 79.125 C24.76904297 78.67769531 23.85058594 78.23039062 22.90429688 77.76953125 C22.03224609 77.33253906 21.16019531 76.89554687 20.26171875 76.4453125 C19.46725342 76.04844238 18.67278809 75.65157227 17.85424805 75.24267578 C16 74 16 74 15 71 C16.65 71 18.3 71 20 71 C19.67 67.37 19.34 63.74 19 60 C15.7 59.67 12.4 59.34 9 59 C9 57.02 9 55.04 9 53 C10.65 53 12.3 53 14 53 C14 51.35 14 49.7 14 48 C9.05 48.33 4.1 48.66 -1 49 C-1.33 50.32 -1.66 51.64 -2 53 C-0.35 53 1.3 53 3 53 C3 54.98 3 56.96 3 59 C4.65 59 6.3 59 8 59 C8 60.98 8 62.96 8 65 C9.65 65 11.3 65 13 65 C13 66.65 13 68.3 13 70 C6.78025308 69.61126582 1.49396455 67.49396455 -3 63 C-3.07179964 61.48071962 -3.08392007 59.95832518 -3.0625 58.4375 C-3.05347656 57.61121094 -3.04445313 56.78492188 -3.03515625 55.93359375 C-3.02355469 55.29550781 -3.01195312 54.65742188 -3 54 C-4.65 54 -6.3 54 -8 54 C-8 56.31 -8 58.62 -8 61 C-13.86156393 59.41579353 -21.62660903 56.37339097 -26 52 C-26.0979057 50.50261876 -26.12974864 49.00057108 -26.125 47.5 C-26.12757813 46.6853125 -26.13015625 45.870625 -26.1328125 45.03125 C-26 43 -26 43 -25 42 C-23.00041636 41.95919217 -20.99954746 41.95745644 -19 42 C-19 38.37 -19 34.74 -19 31 C-11.41 31 -3.82 31 4 31 C4 32.65 4 34.3 4 36 C3 37 3 37 -0.59765625 37.09765625 C-2.08596867 37.0909822 -3.57426432 37.07902183 -5.0625 37.0625 C-6.20041992 37.05573242 -6.20041992 37.05573242 -7.36132812 37.04882812 C-9.24091871 37.0370068 -11.12046899 37.01907078 -13 37 C-13 38.98 -13 40.96 -13 43 C-14.65 43 -16.3 43 -18 43 C-18 44.32 -18 45.64 -18 47 C-14.7 47 -11.4 47 -8 47 C-8 45.35 -8 43.7 -8 42 C-2.72 42 2.56 42 8 42 C8 31.44 8 20.88 8 10 C5.36 10 2.72 10 0 10 C0 6.7 0 3.4 0 0 Z " fill="#B02B37" transform="translate(335,223)"/>
<path d="M0 0 C4.62 0 9.24 0 14 0 C14 2.31 14 4.62 14 7 C15.98 7 17.96 7 20 7 C20 8.98 20 10.96 20 13 C18.35 13.33 16.7 13.66 15 14 C14.67 16.31 14.34 18.62 14 21 C16.64 21 19.28 21 22 21 C22 22.65 22 24.3 22 26 C19.69 26 17.38 26 15 26 C15 28.31 15 30.62 15 33 C16.65 33 18.3 33 20 33 C20 34.98 20 36.96 20 39 C17.69 39 15.38 39 13 39 C13 41.64 13 44.28 13 47 C7.72 47 2.44 47 -3 47 C-3 48.98 -3 50.96 -3 53 C-4.65 53 -6.3 53 -8 53 C-8 55.64 -8 58.28 -8 61 C-13.86156393 59.41579353 -21.62660903 56.37339097 -26 52 C-26.0979057 50.50261876 -26.12974864 49.00057108 -26.125 47.5 C-26.12757813 46.6853125 -26.13015625 45.870625 -26.1328125 45.03125 C-26 43 -26 43 -25 42 C-23.00041636 41.95919217 -20.99954746 41.95745644 -19 42 C-19 38.37 -19 34.74 -19 31 C-11.41 31 -3.82 31 4 31 C4 32.65 4 34.3 4 36 C3 37 3 37 -0.59765625 37.09765625 C-2.08596867 37.0909822 -3.57426432 37.07902183 -5.0625 37.0625 C-6.20041992 37.05573242 -6.20041992 37.05573242 -7.36132812 37.04882812 C-9.24091871 37.0370068 -11.12046899 37.01907078 -13 37 C-13 38.98 -13 40.96 -13 43 C-14.65 43 -16.3 43 -18 43 C-18 44.32 -18 45.64 -18 47 C-14.7 47 -11.4 47 -8 47 C-8 45.35 -8 43.7 -8 42 C-2.72 42 2.56 42 8 42 C8 31.44 8 20.88 8 10 C5.36 10 2.72 10 0 10 C0 6.7 0 3.4 0 0 Z " fill="#A4101F" transform="translate(335,223)"/>
<path d="M0 0 C1.39456452 0.00667256 2.78911118 0.01863093 4.18359375 0.03515625 C4.89451172 0.03966797 5.60542969 0.04417969 6.33789062 0.04882812 C8.09899388 0.06064761 9.86005411 0.07858362 11.62109375 0.09765625 C11.66363731 2.09720371 11.66190158 4.09807261 11.62109375 6.09765625 C10.62109375 7.09765625 10.62109375 7.09765625 8.5546875 7.1953125 C5.08789062 7.14648438 5.08789062 7.14648438 1.62109375 7.09765625 C1.62109375 10.39765625 1.62109375 13.69765625 1.62109375 17.09765625 C3.27109375 17.09765625 4.92109375 17.09765625 6.62109375 17.09765625 C6.62109375 15.44765625 6.62109375 13.79765625 6.62109375 12.09765625 C8.27109375 12.09765625 9.92109375 12.09765625 11.62109375 12.09765625 C11.62109375 16.38765625 11.62109375 20.67765625 11.62109375 25.09765625 C14.92109375 25.09765625 18.22109375 25.09765625 21.62109375 25.09765625 C21.62109375 26.74765625 21.62109375 28.39765625 21.62109375 30.09765625 C23.27109375 30.09765625 24.92109375 30.09765625 26.62109375 30.09765625 C26.62109375 24.15765625 26.62109375 18.21765625 26.62109375 12.09765625 C28.60109375 12.09765625 30.58109375 12.09765625 32.62109375 12.09765625 C32.62109375 20.34765625 32.62109375 28.59765625 32.62109375 37.09765625 C25.69109375 37.09765625 18.76109375 37.09765625 11.62109375 37.09765625 C11.62109375 34.78765625 11.62109375 32.47765625 11.62109375 30.09765625 C9.97109375 30.09765625 8.32109375 30.09765625 6.62109375 30.09765625 C6.62109375 28.44765625 6.62109375 26.79765625 6.62109375 25.09765625 C4.97109375 25.09765625 3.32109375 25.09765625 1.62109375 25.09765625 C1.62109375 26.74765625 1.62109375 28.39765625 1.62109375 30.09765625 C-0.0450253 30.14037725 -1.7127351 30.13829457 -3.37890625 30.09765625 C-4.37890625 29.09765625 -4.37890625 29.09765625 -4.4765625 27.03125 C-4.46496094 26.20753906 -4.45335937 25.38382813 -4.44140625 24.53515625 C-4.43238281 23.70886719 -4.42335938 22.88257813 -4.4140625 22.03125 C-4.40246094 21.39316406 -4.39085937 20.75507813 -4.37890625 20.09765625 C-5.08917969 20.10925781 -5.79945313 20.12085938 -6.53125 20.1328125 C-7.45035156 20.14183594 -8.36945313 20.15085938 -9.31640625 20.16015625 C-10.23292969 20.17175781 -11.14945312 20.18335938 -12.09375 20.1953125 C-14.37890625 20.09765625 -14.37890625 20.09765625 -15.37890625 19.09765625 C-15.50390625 15.59765625 -15.50390625 15.59765625 -15.37890625 12.09765625 C-14.37890625 11.09765625 -14.37890625 11.09765625 -12.09375 11 C-10.71896484 11.01740234 -10.71896484 11.01740234 -9.31640625 11.03515625 C-8.39730469 11.04417969 -7.47820312 11.05320313 -6.53125 11.0625 C-5.82097656 11.07410156 -5.11070312 11.08570313 -4.37890625 11.09765625 C-4.39050781 10.38738281 -4.40210938 9.67710937 -4.4140625 8.9453125 C-4.42759766 7.56666016 -4.42759766 7.56666016 -4.44140625 6.16015625 C-4.45300781 5.24363281 -4.46460938 4.32710937 -4.4765625 3.3828125 C-4.3190922 -0.30199259 -3.80656158 0.11001623 0 0 Z " fill="#AD212B" transform="translate(358.37890625,197.90234375)"/>
<path d="M0 0 C8.58 0 17.16 0 26 0 C26 8.58 26 17.16 26 26 C17.42 26 8.84 26 0 26 C0 17.42 0 8.84 0 0 Z " fill="#AB191B" transform="translate(362,240)"/>
<path d="M0 0 C0.66 0 1.32 0 2 0 C2 2.64 2 5.28 2 8 C4.31 8 6.62 8 9 8 C11.2018931 12.67902284 12 14.62516458 12 20 C15.63 20 19.26 20 23 20 C23 23.63 23 27.26 23 31 C25.97 31 28.94 31 32 31 C32 32.98 32 34.96 32 37 C28.7 37 25.4 37 22 37 C22 35.35 22 33.7 22 32 C20.68 32 19.36 32 18 32 C18 33.65 18 35.3 18 37 C12.28796028 39.38001655 12.28796028 39.38001655 8.7890625 38.34765625 C6.69920517 37.34799525 4.83405207 36.41803538 3 35 C2.67 34.01 2.34 33.02 2 32 C3.65 32 5.3 32 7 32 C6.67 28.37 6.34 24.74 6 21 C2.7 20.67 -0.6 20.34 -4 20 C-4 18.02 -4 16.04 -4 14 C-2.35 14 -0.7 14 1 14 C1 12.35 1 10.7 1 9 C-3.95 9.33 -8.9 9.66 -14 10 C-14.33 11.32 -14.66 12.64 -15 14 C-13.35 14 -11.7 14 -10 14 C-10 15.98 -10 17.96 -10 20 C-8.35 20 -6.7 20 -5 20 C-5 21.98 -5 23.96 -5 26 C-3.35 26 -1.7 26 0 26 C0 27.65 0 29.3 0 31 C-6.21974692 30.61126582 -11.50603545 28.49396455 -16 24 C-16.07179964 22.48071962 -16.08392007 20.95832518 -16.0625 19.4375 C-16.05347656 18.61121094 -16.04445313 17.78492188 -16.03515625 16.93359375 C-16.02355469 16.29550781 -16.01195312 15.65742188 -16 15 C-17.65 15 -19.3 15 -21 15 C-21 14.67 -21 14.34 -21 14 C-19.35 14 -17.7 14 -16 14 C-16 12.02 -16 10.04 -16 8 C-10.72 8 -5.44 8 0 8 C0 5.36 0 2.72 0 0 Z " fill="#AC2331" transform="translate(348,262)"/>
<path d="M0 0 C3.3 0 6.6 0 10 0 C10 5.61 10 11.22 10 17 C11.65 17 13.3 17 15 17 C15 20.96 15 24.92 15 29 C16.32 29 17.64 29 19 29 C19 29.66 19 30.32 19 31 C17.13591458 32.04063021 15.25814929 33.05677915 13.375 34.0625 C12.33085937 34.63097656 11.28671875 35.19945312 10.2109375 35.78515625 C5.55221818 37.54776173 2.70557851 36.73267809 -1.7734375 34.80859375 C-2.63195312 34.35613281 -3.49046875 33.90367187 -4.375 33.4375 C-5.24898438 32.98246094 -6.12296875 32.52742188 -7.0234375 32.05859375 C-7.67570312 31.70925781 -8.32796875 31.35992187 -9 31 C-9 30.34 -9 29.68 -9 29 C-7.68 28.67 -6.36 28.34 -5 28 C-4.67 26.35 -4.34 24.7 -4 23 C-2.68 23 -1.36 23 0 23 C0 24.65 0 26.3 0 28 C3.3 28 6.6 28 10 28 C10 26.02 10 24.04 10 22 C7.03 22 4.06 22 1 22 C1 18.37 1 14.74 1 11 C-0.98 11 -2.96 11 -5 11 C-5 9.02 -5 7.04 -5 5 C-3.35 5 -1.7 5 0 5 C0 3.35 0 1.7 0 0 Z " fill="#A71526" transform="translate(370,271)"/>
<path d="M0 0 C3.3 0 6.6 0 10 0 C10 1.65 10 3.3 10 5 C13.63 5 17.26 5 21 5 C21 3.35 21 1.7 21 0 C22.65 0 24.3 0 26 0 C26.55668337 3.47755289 26.75342977 6.54247984 26 10 C21.79154349 14.61995003 15.98582984 16.72641918 10 18 C10 15.69 10 13.38 10 11 C8.35 11 6.7 11 5 11 C5.10441406 11.58007812 5.20882813 12.16015625 5.31640625 12.7578125 C5.58887395 15.37869224 5.58459405 17.42439723 5 20 C2.50016197 22.85695774 -0.63025454 24.32832471 -4 26 C-4.92377441 26.46116211 -4.92377441 26.46116211 -5.86621094 26.93164062 C-18.12860577 33 -18.12860577 33 -21 33 C-21 29.7 -21 26.4 -21 23 C-20.01 23 -19.02 23 -18 23 C-18 24.32 -18 25.64 -18 27 C-15.69 27 -13.38 27 -11 27 C-11 25.35 -11 23.7 -11 22 C-9.02 22 -7.04 22 -5 22 C-5 20.02 -5 18.04 -5 16 C-3.35 16 -1.7 16 0 16 C0 10.72 0 5.44 0 0 Z " fill="#A41024" transform="translate(413,266)"/>
<path d="M0 0 C4.62 0 9.24 0 14 0 C14 2.31 14 4.62 14 7 C15.98 7 17.96 7 20 7 C20 8.98 20 10.96 20 13 C18.35 13.33 16.7 13.66 15 14 C14.67 16.31 14.34 18.62 14 21 C13.67 21 13.34 21 13 21 C13 14.4 13 7.8 13 1 C11.68 1 10.36 1 9 1 C9.24339111 2.73358765 9.24339111 2.73358765 9.49169922 4.50219727 C10.00943892 8.65969842 10.14532346 12.7780604 10.1328125 16.96484375 C10.13376923 17.68362198 10.13472595 18.40240021 10.13571167 19.14295959 C10.13638622 20.64454233 10.13458309 22.1461281 10.13037109 23.64770508 C10.12495671 25.955957 10.13036869 28.26401921 10.13671875 30.57226562 C10.13605892 32.03645876 10.13477973 33.50065178 10.1328125 34.96484375 C10.13483673 35.65642075 10.13686096 36.34799774 10.13894653 37.06053162 C10.11498966 41.88501034 10.11498966 41.88501034 9 43 C6.30345146 43.07319621 3.63308542 43.09242537 0.9375 43.0625 C-0.20041992 43.05573242 -0.20041992 43.05573242 -1.36132812 43.04882812 C-3.24091871 43.0370068 -5.12046899 43.01907078 -7 43 C-7 44.65 -7 46.3 -7 48 C-10.96 48 -14.92 48 -19 48 C-19 46.35 -19 44.7 -19 43 C-20.65 43 -22.3 43 -24 43 C-23.85892253 44.45880109 -23.71197585 45.91703551 -23.5625 47.375 C-23.44068359 48.59316406 -23.44068359 48.59316406 -23.31640625 49.8359375 C-23.10909886 52.04272805 -23.10909886 52.04272805 -22 54 C-23.32 53.34 -24.64 52.68 -26 52 C-26.02689216 50.52093108 -26.04634621 49.04172517 -26.0625 47.5625 C-26.07990234 46.32693359 -26.07990234 46.32693359 -26.09765625 45.06640625 C-26 43 -26 43 -25 42 C-23.00041636 41.95919217 -20.99954746 41.95745644 -19 42 C-19 38.37 -19 34.74 -19 31 C-11.41 31 -3.82 31 4 31 C4 32.65 4 34.3 4 36 C3 37 3 37 -0.59765625 37.09765625 C-2.08596867 37.0909822 -3.57426432 37.07902183 -5.0625 37.0625 C-6.20041992 37.05573242 -6.20041992 37.05573242 -7.36132812 37.04882812 C-9.24091871 37.0370068 -11.12046899 37.01907078 -13 37 C-13 38.98 -13 40.96 -13 43 C-14.65 43 -16.3 43 -18 43 C-18 44.32 -18 45.64 -18 47 C-14.7 47 -11.4 47 -8 47 C-8 45.35 -8 43.7 -8 42 C-2.72 42 2.56 42 8 42 C8 31.44 8 20.88 8 10 C5.36 10 2.72 10 0 10 C0 6.7 0 3.4 0 0 Z " fill="#CB7881" transform="translate(335,223)"/>
<path d="M0 0 C3.96 0 7.92 0 12 0 C12.33 1.65 12.66 3.3 13 5 C11.35 5.33 9.7 5.66 8 6 C8 7.65 8 9.3 8 11 C9.65 11 11.3 11 13 11 C13 12.65 13 14.3 13 16 C21.91 16 30.82 16 40 16 C40 19.63 40 23.26 40 27 C41.4540625 26.9690625 41.4540625 26.9690625 42.9375 26.9375 C46 27 46 27 47 28 C47.14115161 30.67058851 47.04247107 33.32432238 47 36 C46.01 36.495 46.01 36.495 45 37 C45 34.03 45 31.06 45 28 C43.35 28 41.7 28 40 28 C40 29.65 40 31.3 40 33 C36.37 33 32.74 33 29 33 C29 31.02 29 29.04 29 27 C25.37 27 21.74 27 18 27 C18 32.28 18 37.56 18 43 C16.68 43 15.36 43 14 43 C14 36.07 14 29.14 14 22 C20.6 22 27.2 22 34 22 C34 23.65 34 25.3 34 27 C35.65 27 37.3 27 39 27 C39 23.7 39 20.4 39 17 C38.14019531 17.0721875 37.28039062 17.144375 36.39453125 17.21875 C28.24206133 17.85885669 20.17605706 18.12223341 12 18 C12 16.02 12 14.04 12 12 C11.01 12 10.02 12 9 12 C9 12.99 9 13.98 9 15 C7.35 15 5.7 15 4 15 C4.99 14.67 5.98 14.34 7 14 C7 13.01 7 12.02 7 11 C4.69 11 2.38 11 0 11 C0 7.37 0 3.74 0 0 Z " fill="#C0555D" transform="translate(394,238)"/>
<path d="M0 0 C5.28 0 10.56 0 16 0 C16 1.98 16 3.96 16 6 C14.35 6.33 12.7 6.66 11 7 C11 8.65 11 10.3 11 12 C14.3 12 17.6 12 21 12 C21 13.98 21 15.96 21 18 C15.72 18 10.44 18 5 18 C5 22.29 5 26.58 5 31 C3.35 31 1.7 31 0 31 C0 20.77 0 10.54 0 0 Z " fill="#AD2430" transform="translate(375,186)"/>
<path d="M0 0 C1.98 0 3.96 0 6 0 C6 8.25 6 16.5 6 25 C-0.93 25 -7.86 25 -15 25 C-15 22.69 -15 20.38 -15 18 C-14.67 18 -14.34 18 -14 18 C-14 19.65 -14 21.3 -14 23 C-13.34 23 -12.68 23 -12 23 C-12 20.03 -12 17.06 -12 14 C-12.99 13.67 -13.98 13.34 -15 13 C-11.7 13 -8.4 13 -5 13 C-5 14.65 -5 16.3 -5 18 C-3.35 18 -1.7 18 0 18 C0 12.06 0 6.12 0 0 Z " fill="#BA4446" transform="translate(385,210)"/>
<path d="M0 0 C5.28 0 10.56 0 16 0 C16 5.28 16 10.56 16 16 C13.545625 16.020625 11.09125 16.04125 8.5625 16.0625 C7.78849854 16.071604 7.01449707 16.08070801 6.21704102 16.09008789 C4.47778283 16.09724913 2.73854696 16.05024702 1 16 C0 15 0 15 -0.09765625 11.62109375 C-0.09191424 10.22652508 -0.07890228 8.83198403 -0.0625 7.4375 C-0.041875 4.983125 -0.02125 2.52875 0 0 Z " fill="#F6E6E6" transform="translate(367,245)"/>
<path d="M0 0 C0.33 0 0.66 0 1 0 C1 2.97 1 5.94 1 9 C-0.98 9 -2.96 9 -5 9 C-5 12.63 -5 16.26 -5 20 C-3.35 20 -1.7 20 0 20 C0 18.02 0 16.04 0 14 C1.66611905 13.957279 3.33382885 13.95936168 5 14 C6 15 6 15 6.0625 17.5625 C6.041875 18.366875 6.02125 19.17125 6 20 C4.35 20 2.7 20 1 20 C1 21.65 1 23.3 1 25 C-1.31 25 -3.62 25 -6 25 C-6 23.68 -6 22.36 -6 21 C-6.99 21 -7.98 21 -9 21 C-8.67 24.63 -8.34 28.26 -8 32 C-12 33 -12 33 -16 32 C-16 28.04 -16 24.08 -16 20 C-15.67 20 -15.34 20 -15 20 C-15 23.3 -15 26.6 -15 30 C-13.68 30 -12.36 30 -11 30 C-11 26.7 -11 23.4 -11 20 C-9.35 19.67 -7.7 19.34 -6 19 C-6 15.7 -6 12.4 -6 9 C-7.32 9 -8.64 9 -10 9 C-10 10.65 -10 12.3 -10 14 C-11.98 14 -13.96 14 -16 14 C-16 10.37 -16 6.74 -16 3 C-12.04 3 -8.08 3 -4 3 C-4 4.65 -4 6.3 -4 8 C-2.68 8 -1.36 8 0 8 C0 5.36 0 2.72 0 0 Z " fill="#CD7B85" transform="translate(401,268)"/>
<path d="M0 0 C2.475 0.99 2.475 0.99 5 2 C4.39009109 5.55780196 3.4216319 8.6828589 2 12 C3.03060547 11.83951172 3.03060547 11.83951172 4.08203125 11.67578125 C4.98308594 11.55589844 5.88414062 11.43601562 6.8125 11.3125 C7.70582031 11.18488281 8.59914063 11.05726563 9.51953125 10.92578125 C12 11 12 11 13.82421875 12.35546875 C15 14 15 14 15 16 C12.953125 17.875 12.953125 17.875 10.25 20 C9.36828125 20.70125 8.4865625 21.4025 7.578125 22.125 C5.42201936 23.69307683 3.42251379 24.91326484 1 26 C0.34 24.68 -0.32 23.36 -1 22 C0.98 20.68 2.96 19.36 5 18 C2.03 18 -0.94 18 -4 18 C-3.835 17.071875 -3.67 16.14375 -3.5 15.1875 C-2.92251612 12.04378647 -2.92251612 12.04378647 -3 9 C-3.763125 9.680625 -4.52625 10.36125 -5.3125 11.0625 C-6.199375 11.701875 -7.08625 12.34125 -8 13 C-8.99 12.67 -9.98 12.34 -11 12 C-11 11.01 -11 10.02 -11 9 C-8.84765625 6.9921875 -8.84765625 6.9921875 -6.0625 4.875 C-5.14597656 4.17117188 -4.22945313 3.46734375 -3.28515625 2.7421875 C-2.53105469 2.16726563 -1.77695312 1.59234375 -1 1 C-0.67 0.67 -0.34 0.34 0 0 Z " fill="#2A293D" transform="translate(310,289)"/>
<path d="M0 0 C3.07327733 1.32041371 3.84102169 3.29661011 5.39453125 6.20703125 C5.92691406 7.17253906 6.45929688 8.13804687 7.0078125 9.1328125 C8.13268637 12.02476096 8.2271666 13.07522141 7.08203125 15.89453125 C6.09203125 15.89453125 5.10203125 15.89453125 4.08203125 15.89453125 C3.09203125 13.91453125 2.10203125 11.93453125 1.08203125 9.89453125 C0.75203125 12.86453125 0.42203125 15.83453125 0.08203125 18.89453125 C-3.32109613 17.83578051 -5.93150106 16.88550971 -8.91796875 14.89453125 C-8.40234375 15.82265625 -7.88671875 16.75078125 -7.35546875 17.70703125 C-5.91796875 20.89453125 -5.91796875 20.89453125 -6.91796875 23.89453125 C-7.90796875 23.89453125 -8.89796875 23.89453125 -9.91796875 23.89453125 C-10.33046875 23.04890625 -10.74296875 22.20328125 -11.16796875 21.33203125 C-12.4274586 18.85803334 -13.72394294 16.56360115 -15.16796875 14.20703125 C-15.74546875 13.11390625 -16.32296875 12.02078125 -16.91796875 10.89453125 C-16.58796875 9.90453125 -16.25796875 8.91453125 -15.91796875 7.89453125 C-11.35342624 8.43792917 -7.94515115 9.68916946 -3.91796875 11.89453125 C-3.91796875 8.26453125 -3.91796875 4.63453125 -3.91796875 0.89453125 C-1.91796875 -0.10546875 -1.91796875 -0.10546875 0 0 Z " fill="#4A495A" transform="translate(419.91796875,308.10546875)"/>
<path d="M0 0 C4.95 0 9.9 0 15 0 C15 1.65 15 3.3 15 5 C13.35 5 11.7 5 10 5 C10 6.98 10 8.96 10 11 C10.71027344 10.98839844 11.42054688 10.97679687 12.15234375 10.96484375 C13.07144531 10.95582031 13.99054688 10.94679688 14.9375 10.9375 C15.85402344 10.92589844 16.77054687 10.91429687 17.71484375 10.90234375 C20 11 20 11 21 12 C21.07226502 13.85287502 21.0838122 15.70833878 21.0625 17.5625 C21.05347656 18.57441406 21.04445313 19.58632813 21.03515625 20.62890625 C21.02355469 21.41136719 21.01195312 22.19382812 21 23 C18.25 24.1875 18.25 24.1875 15 25 C12.625 23.625 12.625 23.625 11 22 C11.99 22 12.98 22 14 22 C14 20.35 14 18.7 14 17 C12.35 17 10.7 17 9 17 C9 15.02 9 13.04 9 11 C7.35 11 5.7 11 4 11 C4 9.02 4 7.04 4 5 C2.35 5 0.7 5 -1 5 C-0.67 3.35 -0.34 1.7 0 0 Z " fill="#CB7882" transform="translate(334,271)"/>
<path d="M0 0 C6.6 0 13.2 0 20 0 C20 1.98 20 3.96 20 6 C21.65 6 23.3 6 25 6 C25 7.32 25 8.64 25 10 C22.03 10 19.06 10 16 10 C15.67 8.68 15.34 7.36 15 6 C11.37 5.67 7.74 5.34 4 5 C4 10.28 4 15.56 4 21 C2.68 21 1.36 21 0 21 C0 14.07 0 7.14 0 0 Z " fill="#FCF8F9" transform="translate(408,260)"/>
<path d="M0 0 C4.62 0 9.24 0 14 0 C14 2.31 14 4.62 14 7 C15.98 7 17.96 7 20 7 C20 8.98 20 10.96 20 13 C18.35 13.33 16.7 13.66 15 14 C14.67 16.31 14.34 18.62 14 21 C13.67 21 13.34 21 13 21 C13 14.4 13 7.8 13 1 C11.68 1 10.36 1 9 1 C9.16298584 2.155 9.32597168 3.31 9.49389648 4.5 C10.01346927 8.67170377 10.12951385 12.79939706 10.09765625 17 C10.0962413 17.7211499 10.09482635 18.4422998 10.09336853 19.18530273 C10.08783381 21.45691324 10.07529423 23.72842 10.0625 26 C10.05747654 27.55338398 10.05291512 29.10676952 10.04882812 30.66015625 C10.03788589 34.44014328 10.0206676 38.22005414 10 42 C9.67 42 9.34 42 9 42 C9 31.44 9 20.88 9 10 C6.03 10 3.06 10 0 10 C0 6.7 0 3.4 0 0 Z " fill="#A9212B" transform="translate(335,223)"/>
<path d="M0 0 C8.58 0 17.16 0 26 0 C26 8.58 26 17.16 26 26 C17.42 26 8.84 26 0 26 C0 17.42 0 8.84 0 0 Z M5 1 C5 4.114375 5 7.22875 5 10.4375 C5 13.95833333 5 17.47916667 5 21 C4.67 16.05 4.34 11.1 4 6 C3.01 6.33 2.02 6.66 1 7 C1 12.94 1 18.88 1 25 C8.92 25 16.84 25 25 25 C25 17.08 25 9.16 25 1 C18.4 1 11.8 1 5 1 Z " fill="#C05759" transform="translate(362,240)"/>
<path d="M0 0 C5.28 0 10.56 0 16 0 C16 0.99 16 1.98 16 3 C15.34 3 14.68 3 14 3 C13.731875 3.886875 13.46375 4.77375 13.1875 5.6875 C12.08289181 8.76877548 10.77150856 11.26221405 9 14 C11.97 14 14.94 14 18 14 C18 14.99 18 15.98 18 17 C12.63904667 18.12862175 7.44693314 18.09688221 2 18 C2.65902299 14.42959697 4.16229158 11.82267745 6.0625 8.75 C6.61035156 7.85796875 7.15820312 6.9659375 7.72265625 6.046875 C8.14417969 5.37140625 8.56570313 4.6959375 9 4 C6.03 4 3.06 4 0 4 C0 2.68 0 1.36 0 0 Z " fill="#313145" transform="translate(372,322)"/>
<path d="M0 0 C5.28 0 10.56 0 16 0 C16 3.3 16 6.6 16 10 C10.72 10 5.44 10 0 10 C0 6.7 0 3.4 0 0 Z " fill="#A6182C" transform="translate(367,170)"/>
<path d="M0 0 C6.45810245 0.99681713 12.76571832 2.01636492 19 4 C18.34 5.32 17.68 6.64 17 8 C16.236875 7.938125 15.47375 7.87625 14.6875 7.8125 C12.03804403 7.79729979 12.03804403 7.79729979 10.1875 9.0625 C8.39157863 11.99268751 8.81022426 14.6472953 9 18 C8.01 18.33 7.02 18.66 6 19 C5.5875 18.01 5.175 17.02 4.75 16 C3.27419005 12.5020466 1.53138805 9.20257801 -0.328125 5.89453125 C-1.15765061 3.55546195 -0.79856676 2.30867697 0 0 Z " fill="#363447" transform="translate(431,295)"/>
<path d="M0 0 C1.65 0.33 3.3 0.66 5 1 C4.67 2.03125 4.34 3.0625 4 4.125 C3.03566043 7.48992955 2.74884633 10.48384861 3 14 C3.33 14.33 3.66 14.66 4 15 C5.98 15 7.96 15 10 15 C10.99 11.04 11.98 7.08 13 3 C14.32 3 15.64 3 17 3 C16.5587029 8.22588666 16.07351958 13.1211304 14 18 C10.81345065 19.59327468 7.46828976 19.39200976 4 19 C1.63706998 17.84367254 -0.14983755 16.85016245 -2 15 C-1.79510922 9.97086264 -1.14375899 4.90182424 0 0 Z " fill="#28283D" transform="translate(350,319)"/>
<path d="M0 0 C5.94 0 11.88 0 18 0 C18 2.64 18 5.28 18 8 C12.06 8 6.12 8 0 8 C0 5.36 0 2.72 0 0 Z " fill="#B73F45" transform="translate(396,223)"/>
<path d="M0 0 C6.93 0 13.86 0 21 0 C21 1.65 21 3.3 21 5 C15.72 5 10.44 5 5 5 C5 6.65 5 8.3 5 10 C3.35 10 1.7 10 0 10 C0 6.7 0 3.4 0 0 Z " fill="#A81A2A" transform="translate(317,255)"/>
<path d="M0 0 C1.65 0 3.3 0 5 0 C5 1.65 5 3.3 5 5 C6.65 5 8.3 5 10 5 C10 6.98 10 8.96 10 11 C11.65 11 13.3 11 15 11 C15 12.65 15 14.3 15 16 C9.88155445 15.68009715 5.86612991 14.56274452 1.53515625 11.7421875 C-0.55053094 9.37522443 -0.50441283 7.80295599 -0.5 4.6875 C-0.37196528 3.12136107 -0.21756982 1.55622858 0 0 Z " fill="#A7182B" transform="translate(333,277)"/>
<path d="M0 0 C1.65 0.33 3.3 0.66 5 1 C5 3.64 5 6.28 5 9 C5.9075 8.46375 6.815 7.9275 7.75 7.375 C11 6 11 6 13.375 6.8125 C13.91125 7.204375 14.4475 7.59625 15 8 C12.75102861 10.50846809 11.01633072 11.99233456 7.9375 13.4375 C4.62489794 15.19952237 3.61677369 16.67663185 2 20 C0.68 19.67 -0.64 19.34 -2 19 C-1.49396008 16.83125748 -1.00016187 15.00032373 0 13 C0.07092842 10.7927077 0.08415025 8.58332548 0.0625 6.375 C0.04896484 4.59222656 0.04896484 4.59222656 0.03515625 2.7734375 C0.02355469 1.85820312 0.01195312 0.94296875 0 0 Z " fill="#212136" transform="translate(329,308)"/>
<path d="M0 0 C0.33 0 0.66 0 1 0 C1 3.63 1 7.26 1 11 C-2.3 11 -5.6 11 -9 11 C-9 13.31 -9 15.62 -9 18 C-5.7 18 -2.4 18 1 18 C1 18.99 1 19.98 1 21 C1.763125 21.144375 2.52625 21.28875 3.3125 21.4375 C6 22 6 22 9 23 C9 22.34 9 21.68 9 21 C10.32 21 11.64 21 13 21 C13 23.31 13 25.62 13 28 C13.99 28.33 14.98 28.66 16 29 C14.35 29 12.7 29 11 29 C11 27.35 11 25.7 11 24 C9.35 24 7.7 24 6 24 C6 25.65 6 27.3 6 29 C4.33388095 29.042721 2.66617115 29.04063832 1 29 C0 28 0 28 -0.09765625 25.93359375 C-0.08605469 25.10988281 -0.07445312 24.28617188 -0.0625 23.4375 C-0.05347656 22.61121094 -0.04445313 21.78492188 -0.03515625 20.93359375 C-0.02355469 20.29550781 -0.01195312 19.65742188 0 19 C-0.71027344 19.01160156 -1.42054688 19.02320313 -2.15234375 19.03515625 C-3.07144531 19.04417969 -3.99054688 19.05320313 -4.9375 19.0625 C-5.85402344 19.07410156 -6.77054687 19.08570313 -7.71484375 19.09765625 C-10 19 -10 19 -11 18 C-11.125 14.5 -11.125 14.5 -11 11 C-10 10 -10 10 -7.71484375 9.90234375 C-5.14322917 9.93489583 -2.57161458 9.96744792 0 10 C0 6.7 0 3.4 0 0 Z " fill="#C36064" transform="translate(354,199)"/>
<path d="M0 0 C3.63 0 7.26 0 11 0 C11 3.63 11 7.26 11 11 C7.37 11 3.74 11 0 11 C0 7.37 0 3.74 0 0 Z " fill="#AC2631" transform="translate(327,238)"/>
<path d="M0 0 C3.96 0 7.92 0 12 0 C12 3.3 12 6.6 12 10 C8.04 10 4.08 10 0 10 C0 6.7 0 3.4 0 0 Z " fill="#B53031" transform="translate(369,248)"/>
<path d="M0 0 C2.57161458 0.03255208 5.14322917 0.06510417 7.71484375 0.09765625 C7.71484375 3.72765625 7.71484375 7.35765625 7.71484375 11.09765625 C4.08484375 11.09765625 0.45484375 11.09765625 -3.28515625 11.09765625 C-3.3828125 3.3828125 -3.3828125 3.3828125 -3.28515625 1.09765625 C-2.28515625 0.09765625 -2.28515625 0.09765625 0 0 Z " fill="#AE2C37" transform="translate(415.28515625,237.90234375)"/>
<path d="M0 0 C2.475 0.99 2.475 0.99 5 2 C4.27991594 6.60853797 2.68704061 10.67237409 1 15 C1.66 15.33 2.32 15.66 3 16 C1.02 16 -0.96 16 -3 16 C-2.67 13.36 -2.34 10.72 -2 8 C-2.928125 8.845625 -3.85625 9.69125 -4.8125 10.5625 C-6.39453125 12.00390625 -6.39453125 12.00390625 -8 13 C-8.99 12.67 -9.98 12.34 -11 12 C-11 11.01 -11 10.02 -11 9 C-8.84765625 6.9921875 -8.84765625 6.9921875 -6.0625 4.875 C-5.14597656 4.17117188 -4.22945313 3.46734375 -3.28515625 2.7421875 C-2.53105469 2.16726563 -1.77695312 1.59234375 -1 1 C-0.67 0.67 -0.34 0.34 0 0 Z " fill="#222137" transform="translate(310,289)"/>
<path d="M0 0 C1.65 0 3.3 0 5 0 C5 4.62 5 9.24 5 14 C5.99 14 6.98 14 8 14 C8 16.97 8 19.94 8 23 C7.34 23 6.68 23 6 23 C5.67 21.35 5.34 19.7 5 18 C4.01 17.67 3.02 17.34 2 17 C2 14.69 2 12.38 2 10 C0.68 10 -0.64 10 -2 10 C-2 10.66 -2 11.32 -2 12 C-3.32 11.67 -4.64 11.34 -6 11 C-6 10.34 -6 9.68 -6 9 C-5.34 9 -4.68 9 -4 9 C-4 8.34 -4 7.68 -4 7 C-2.68 7 -1.36 7 0 7 C0 4.69 0 2.38 0 0 Z " fill="#A82123" transform="translate(365,210)"/>
<path d="M0 0 C0.33 0 0.66 0 1 0 C1 8.25 1 16.5 1 25 C-5.93 25 -12.86 25 -20 25 C-20 22.69 -20 20.38 -20 18 C-19.67 18 -19.34 18 -19 18 C-19 19.65 -19 21.3 -19 23 C-18.34 23 -17.68 23 -17 23 C-17 20.03 -17 17.06 -17 14 C-17.99 13.67 -18.98 13.34 -20 13 C-16.7 13 -13.4 13 -10 13 C-10 14.65 -10 16.3 -10 18 C-10.66 17.67 -11.32 17.34 -12 17 C-12 18.98 -12 20.96 -12 23 C-8.04 23.33 -4.08 23.66 0 24 C0 16.08 0 8.16 0 0 Z " fill="#BF5253" transform="translate(390,210)"/>
<path d="M0 0 C6 1 6 1 7.71484375 2.92578125 C8.11832031 3.71339844 8.52179688 4.50101562 8.9375 5.3125 C9.35902344 6.09238281 9.78054688 6.87226563 10.21484375 7.67578125 C11.09388208 10.27790965 10.93555364 11.46064012 10 14 C9.01 14 8.02 14 7 14 C6.01 12.02 5.02 10.04 4 8 C3.67 10.97 3.34 13.94 3 17 C1.68 16.67 0.36 16.34 -1 16 C-0.67 10.72 -0.34 5.44 0 0 Z " fill="#464557" transform="translate(417,310)"/>
<path d="M0 0 C1.65 0 3.3 0 5 0 C5 3.3 5 6.6 5 10 C3.35 10 1.7 10 0 10 C0 11.98 0 13.96 0 16 C-1.65 16 -3.3 16 -5 16 C-5 12.37 -5 8.74 -5 5 C-3.35 5 -1.7 5 0 5 C0 3.35 0 1.7 0 0 Z " fill="#FBF4F5" transform="translate(365,283)"/>
<path d="M0 0 C4.95 0 9.9 0 15 0 C15 1.65 15 3.3 15 5 C13.35 5.33 11.7 5.66 10 6 C9.67 7.32 9.34 8.64 9 10 C7.68 10 6.36 10 5 10 C4.67 8.68 4.34 7.36 4 6 C2.35 5.67 0.7 5.34 -1 5 C-0.67 3.35 -0.34 1.7 0 0 Z " fill="#FBF6F6" transform="translate(334,271)"/>
<path d="M0 0 C3.96 0 7.92 0 12 0 C12 1.32 12 2.64 12 4 C10.35 4 8.7 4 7 4 C7 6.31 7 8.62 7 11 C4.69 11 2.38 11 0 11 C0 7.37 0 3.74 0 0 Z " fill="#AD2529" transform="translate(394,238)"/>
<path d="M0 0 C3.63 0 7.26 0 11 0 C11 1.65 11 3.3 11 5 C9.35 5 7.7 5 6 5 C6 6.98 6 8.96 6 11 C4.02 11 2.04 11 0 11 C0 7.37 0 3.74 0 0 Z " fill="#BA464F" transform="translate(385,271)"/>
<path d="M0 0 C4.62 0 9.24 0 14 0 C14 2.31 14 4.62 14 7 C15.98 7 17.96 7 20 7 C20 8.98 20 10.96 20 13 C18.35 13.33 16.7 13.66 15 14 C14.67 16.31 14.34 18.62 14 21 C13.67 21 13.34 21 13 21 C13 14.4 13 7.8 13 1 C9.04 1 5.08 1 1 1 C1 3.64 1 6.28 1 9 C3.31 9 5.62 9 8 9 C8 9.33 8 9.66 8 10 C5.36 10 2.72 10 0 10 C0 6.7 0 3.4 0 0 Z " fill="#BC5156" transform="translate(335,223)"/>
<path d="M0 0 C0.66 0 1.32 0 2 0 C2 2.64 2 5.28 2 8 C4.31 8 6.62 8 9 8 C9 8.33 9 8.66 9 9 C6.69 9 4.38 9 2 9 C2 10.98 2 12.96 2 15 C0.02 15 -1.96 15 -4 15 C-4 14.67 -4 14.34 -4 14 C-2.35 14 -0.7 14 1 14 C1 12.35 1 10.7 1 9 C-3.95 9.33 -8.9 9.66 -14 10 C-14.33 11.32 -14.66 12.64 -15 14 C-13.35 14 -11.7 14 -10 14 C-10 14.33 -10 14.66 -10 15 C-11.65 15 -13.3 15 -15 15 C-15 17.97 -15 20.94 -15 24 C-15.33 24 -15.66 24 -16 24 C-16 21.03 -16 18.06 -16 15 C-17.65 15 -19.3 15 -21 15 C-21 14.67 -21 14.34 -21 14 C-19.35 14 -17.7 14 -16 14 C-16 12.02 -16 10.04 -16 8 C-10.72 8 -5.44 8 0 8 C0 5.36 0 2.72 0 0 Z " fill="#D08289" transform="translate(348,262)"/>
<path d="M0 0 C3.63 0 7.26 0 11 0 C11 2.31 11 4.62 11 7 C7.37 7 3.74 7 0 7 C0 4.69 0 2.38 0 0 Z " fill="#AD232C" transform="translate(396,210)"/>
<path d="M0 0 C1.32 0 2.64 0 4 0 C4.48066535 1.89545392 4.95946743 3.79138039 5.4375 5.6875 C5.83775391 7.27111328 5.83775391 7.27111328 6.24609375 8.88671875 C6.89897932 11.5828317 7.47941193 14.2757576 8 17 C6.35 16.67 4.7 16.34 3 16 C2.49411853 14.08487728 1.99551609 12.16783078 1.5 10.25 C1.2215625 9.18265625 0.943125 8.1153125 0.65625 7.015625 C0 4 0 4 0 0 Z " fill="#373649" transform="translate(394,319)"/>
<path d="M0 0 C1.32 0 2.64 0 4 0 C4 0.99 4 1.98 4 3 C9.28 3 14.56 3 20 3 C20 3.33 20 3.66 20 4 C14.72 4 9.44 4 4 4 C4.33 8.95 4.66 13.9 5 19 C9.95 19.33 14.9 19.66 20 20 C20 20.33 20 20.66 20 21 C17.35409986 21.02684679 14.70846904 21.04676357 12.0625 21.0625 C11.30775391 21.07087891 10.55300781 21.07925781 9.77539062 21.08789062 C7.85005687 21.09652441 5.92464419 21.05224333 4 21 C2.05909174 19.05909174 2.60080565 15.52706098 2.4375 12.9375 C2.35371094 11.64714844 2.26992188 10.35679687 2.18359375 9.02734375 C2.12300781 8.02832031 2.06242187 7.02929688 2 6 C1.34 6 0.68 6 0 6 C0 4.02 0 2.04 0 0 Z " fill="#BE4F50" transform="translate(363,241)"/>
<path d="M0 0 C3.3 0 6.6 0 10 0 C10 2.31 10 4.62 10 7 C6.7 7 3.4 7 0 7 C0 4.69 0 2.38 0 0 Z " fill="#AA1E2D" transform="translate(360,186)"/>
<path d="M0 0 C1.66611905 -0.042721 3.33382885 -0.04063832 5 0 C6 1 6 1 6.0625 3.5625 C6.041875 4.366875 6.02125 5.17125 6 6 C4.35 6 2.7 6 1 6 C1 7.65 1 9.3 1 11 C-0.98 11 -2.96 11 -5 11 C-5 9.35 -5 7.7 -5 6 C-3.35 6 -1.7 6 0 6 C0 4.02 0 2.04 0 0 Z " fill="#E2B3B9" transform="translate(401,282)"/>
<path d="M0 0 C3.3 0 6.6 0 10 0 C10 3.3 10 6.6 10 10 C8.68 10 7.36 10 6 10 C5.67 8.35 5.34 6.7 5 5 C3.35 4.67 1.7 4.34 0 4 C0 2.68 0 1.36 0 0 Z " fill="#FDFAFA" transform="translate(344,283)"/>
<path d="M0 0 C0.99 0 1.98 0 3 0 C3 1.32 3 2.64 3 4 C6.3 3.67 9.6 3.34 13 3 C13 3.99 13 4.98 13 6 C7.63904667 7.12862175 2.44693314 7.09688221 -3 7 C-2.38722388 4.03824877 -1.74627478 2.61941217 0 0 Z " fill="#343447" transform="translate(377,333)"/>
<path d="M0 0 C0.33 0 0.66 0 1 0 C1 3.63 1 7.26 1 11 C1.969375 10.979375 2.93875 10.95875 3.9375 10.9375 C7 11 7 11 8 12 C8.14115161 14.67058851 8.04247107 17.32432238 8 20 C7.34 20.33 6.68 20.66 6 21 C6 18.03 6 15.06 6 12 C4.35 12 2.7 12 1 12 C1 13.65 1 15.3 1 17 C-2.63 17 -6.26 17 -10 17 C-10 15.35 -10 13.7 -10 12 C-9.67 13.32 -9.34 14.64 -9 16 C-6.03 16 -3.06 16 0 16 C0 14.68 0 13.36 0 12 C-1.65 12 -3.3 12 -5 12 C-5 11.67 -5 11.34 -5 11 C-3.35 11 -1.7 11 0 11 C0 7.37 0 3.74 0 0 Z " fill="#CC7C87" transform="translate(433,254)"/>
<path d="M0 0 C2.64 0 5.28 0 8 0 C8 1.65 8 3.3 8 5 C5.69 5 3.38 5 1 5 C1 7.31 1 9.62 1 12 C2.65 12 4.3 12 6 12 C6 13.98 6 15.96 6 18 C4.02 18 2.04 18 0 18 C0 17.67 0 17.34 0 17 C1.65 17 3.3 17 5 17 C5 15.68 5 14.36 5 13 C3.35 13 1.7 13 0 13 C0 8.66666667 0 4.33333333 0 0 Z " fill="#BA484C" transform="translate(349,244)"/>
<path d="M0 0 C1.32 0 2.64 0 4 0 C3.5547115 5.27315333 2.91626837 10.01770224 1 15 C-0.32 14.01 -1.64 13.02 -3 12 C-2.01 8.04 -1.02 4.08 0 0 Z " fill="#37374A" transform="translate(363,322)"/>
<path d="M0 0 C1.65 0.33 3.3 0.66 5 1 C5 1.66 5 2.32 5 3 C5.66 3.33 6.32 3.66 7 4 C6.34 4 5.68 4 5 4 C5.66 6.64 6.32 9.28 7 12 C3.7558811 10.95724749 2.39805336 9.38759509 0.6875 6.5625 C-1 3 -1 3 0 0 Z " fill="#19192F" transform="translate(404,316)"/>
<path d="M0 0 C1.65 0.33 3.3 0.66 5 1 C5 2.65 5 4.3 5 6 C4.01 5.67 3.02 5.34 2 5 C2 8.63 2 12.26 2 16 C1.01 16 0.02 16 -1 16 C-0.67 10.72 -0.34 5.44 0 0 Z " fill="#0C0B23" transform="translate(417,310)"/>
<path d="M0 0 C0 3.8148669 -1.06277405 5.72675616 -3 9 C-5.5 11.4375 -5.5 11.4375 -8 13 C-8.99 12.67 -9.98 12.34 -11 12 C-11 11.01 -11 10.02 -11 9 C-8.84765625 6.9921875 -8.84765625 6.9921875 -6.0625 4.875 C-5.14597656 4.17117188 -4.22945313 3.46734375 -3.28515625 2.7421875 C-2.53105469 2.16726563 -1.77695312 1.59234375 -1 1 C-0.67 0.67 -0.34 0.34 0 0 Z " fill="#2F2E42" transform="translate(310,289)"/>
<path d="M0 0 C3.3 0 6.6 0 10 0 C10 1.65 10 3.3 10 5 C6.7 5 3.4 5 0 5 C0 3.35 0 1.7 0 0 Z " fill="#F7EAEB" transform="translate(370,294)"/>
<path d="M0 0 C0.66 0.66 1.32 1.32 2 2 C3.98821313 2.39764263 5.98944339 2.73775349 8 3 C8 4.65 8 6.3 8 8 C1.84765625 8.09765625 1.84765625 8.09765625 0 8 C-1 7 -1 7 -1.125 4 C-1 1 -1 1 0 0 Z " fill="#A92222" transform="translate(378,226)"/>
<path d="M0 0 C5.28 0 10.56 0 16 0 C15.67 0.99 15.34 1.98 15 3 C15 2.34 15 1.68 15 1 C13.68 1.33 12.36 1.66 11 2 C11 2.99 11 3.98 11 5 C7.37 4.67 3.74 4.34 0 4 C0 2.68 0 1.36 0 0 Z " fill="#5D5D6C" transform="translate(372,322)"/>
<path d="M0 0 C5.19209404 -0.21192221 9.126739 0.4087311 14 2 C13.34 3.32 12.68 4.64 12 6 C9.69 5.67 7.38 5.34 5 5 C5 4.34 5 3.68 5 3 C3.35 2.67 1.7 2.34 0 2 C0 1.34 0 0.68 0 0 Z " fill="#0D0D24" transform="translate(436,297)"/>
<path d="M0 0 C1.32 0 2.64 0 4 0 C4 3.96 4 7.92 4 12 C2.68 11.34 1.36 10.68 0 10 C0 6.7 0 3.4 0 0 Z " fill="#A9191F" transform="translate(386,210)"/>
<path d="M0 0 C3.63 0 7.26 0 11 0 C10.67 0.66 10.34 1.32 10 2 C6.9375 2.625 6.9375 2.625 4 3 C4.99 3.33 5.98 3.66 7 4 C6.67 4.99 6.34 5.98 6 7 C2.37 7 -1.26 7 -5 7 C-4.67 5.68 -4.34 4.36 -4 3 C-4 3.66 -4 4.32 -4 5 C-2.68 4.67 -1.36 4.34 0 4 C0 2.68 0 1.36 0 0 Z " fill="#6D6C7A" transform="translate(311,300)"/>
<path d="M0 0 C2.64 0 5.28 0 8 0 C8 0.99 8 1.98 8 3 C6.35 3 4.7 3 3 3 C3 4.98 3 6.96 3 9 C2.01 9 1.02 9 0 9 C0 6.03 0 3.06 0 0 Z " fill="#A50D18" transform="translate(387,272)"/>
<path d="M0 0 C0.99 0 1.98 0 3 0 C3.185625 0.9590625 3.185625 0.9590625 3.375 1.9375 C3.684375 2.9584375 3.684375 2.9584375 4 4 C4.66 4.33 5.32 4.66 6 5 C5.67 6.32 5.34 7.64 5 9 C3.35 9.33 1.7 9.66 0 10 C0 6.7 0 3.4 0 0 Z " fill="#A20B1F" transform="translate(392,289)"/>
<path d="M0 0 C1.4540625 0.0309375 1.4540625 0.0309375 2.9375 0.0625 C2.9375 2.0425 2.9375 4.0225 2.9375 6.0625 C0.6275 6.0625 -1.6825 6.0625 -4.0625 6.0625 C-4.105221 4.39638095 -4.10313832 2.72867115 -4.0625 1.0625 C-3.0625 0.0625 -3.0625 0.0625 0 0 Z " fill="#AB232C" transform="translate(411.0625,223.9375)"/>
<path d="M0 0 C1.65 0.33 3.3 0.66 5 1 C4.01 4.3 3.02 7.6 2 11 C1.01 10.34 0.02 9.68 -1 9 C-0.67 6.03 -0.34 3.06 0 0 Z " fill="#323044" transform="translate(350,319)"/>
<path d="M0 0 C2.475 0.495 2.475 0.495 5 1 C5 3.64 5 6.28 5 9 C6.65 8.67 8.3 8.34 10 8 C9.67 8.66 9.34 9.32 9 10 C7.35 10 5.7 10 4 10 C4 7.36 4 4.72 4 2 C3.34 2 2.68 2 2 2 C2 5.63 2 9.26 2 13 C1.67 13 1.34 13 1 13 C0.67 8.71 0.34 4.42 0 0 Z " fill="#6B6876" transform="translate(329,308)"/>
<path d="M0 0 C0.99 0 1.98 0 3 0 C3 2.64 3 5.28 3 8 C0.36 8 -2.28 8 -5 8 C-5 7.34 -5 6.68 -5 6 C-3.68 6 -2.36 6 -1 6 C-0.67 4.02 -0.34 2.04 0 0 Z " fill="#A71218" transform="translate(366,211)"/>
<path d="M0 0 C1.32 0.33 2.64 0.66 4 1 C4.33 3.64 4.66 6.28 5 9 C4.01 9.33 3.02 9.66 2 10 C0.39644899 6.49223216 -0.22036864 3.85645121 0 0 Z " fill="#222136" transform="translate(435,304)"/>
<path d="M0 0 C1.65 0 3.3 0 5 0 C5 1.98 5 3.96 5 6 C3.35 6 1.7 6 0 6 C0 4.02 0 2.04 0 0 Z " fill="#B53C3C" transform="translate(360,229)"/>
<path d="M0 0 C1.65 0 3.3 0 5 0 C5 1.98 5 3.96 5 6 C3.35 6 1.7 6 0 6 C0 4.02 0 2.04 0 0 Z " fill="#FAF3F3" transform="translate(360,223)"/>
<path d="M0 0 C1.65 0 3.3 0 5 0 C5 0.66 5 1.32 5 2 C5.66 2.33 6.32 2.66 7 3 C5.1875 4.5625 5.1875 4.5625 3 6 C2.01 5.67 1.02 5.34 0 5 C0 3.35 0 1.7 0 0 Z " fill="#888692" transform="translate(436,300)"/>
<path d="M0 0 C2.31 0 4.62 0 7 0 C7 1.65 7 3.3 7 5 C8.98 4.67 10.96 4.34 13 4 C12.67 4.66 12.34 5.32 12 6 C9.6859378 6.73075648 7.35171131 7.40138258 5 8 C5 5.69 5 3.38 5 1 C3.35 1 1.7 1 0 1 C0 0.67 0 0.34 0 0 Z " fill="#B74555" transform="translate(418,276)"/>
<path d="M0 0 C4.23830976 2.82553984 3.97715348 5.12180888 5 10 C3.68 10.33 2.36 10.66 1 11 C0.67 9.68 0.34 8.36 0 7 C0.66 7 1.32 7 2 7 C1.34 4.69 0.68 2.38 0 0 Z " fill="#515061" transform="translate(409,321)"/>
<path d="M0 0 C1 3 1 3 0.0625 5.1875 C-0.4634375 6.0846875 -0.4634375 6.0846875 -1 7 C-2.32 6.67 -3.64 6.34 -5 6 C-4.75 4.125 -4.75 4.125 -4 2 C-1.9375 0.75 -1.9375 0.75 0 0 Z " fill="#353448" transform="translate(332,321)"/>
<path d="M0 0 C0.33 0 0.66 0 1 0 C1 3.63 1 7.26 1 11 C2.65 11 4.3 11 6 11 C4.375 12.125 4.375 12.125 2 13 C-1.25 12.125 -1.25 12.125 -4 11 C-2.68 10.67 -1.36 10.34 0 10 C0 6.7 0 3.4 0 0 Z " fill="#BB4C5B" transform="translate(359,288)"/>
<path d="M0 0 C1.65 0 3.3 0 5 0 C5 1.65 5 3.3 5 5 C3.35 5 1.7 5 0 5 C0 3.35 0 1.7 0 0 Z " fill="#F7EBEC" transform="translate(396,288)"/>
<path d="M0 0 C0.66 0 1.32 0 2 0 C2 0.66 2 1.32 2 2 C2.99 1.67 3.98 1.34 5 1 C5.66 3.31 6.32 5.62 7 8 C3.70851757 6.86500606 3.0040131 6.00716624 1.25 2.875 C0.8375 1.92625 0.425 0.9775 0 0 Z " fill="#28283C" transform="translate(404,320)"/>
<path d="M0 0 C1.98 0 3.96 0 6 0 C6 1.32 6 2.64 6 4 C4.02 4 2.04 4 0 4 C0 2.68 0 1.36 0 0 Z " fill="#A81515" transform="translate(379,229)"/>
<path d="M0 0 C4.455 0.99 4.455 0.99 9 2 C8.34 3.32 7.68 4.64 7 6 C5.35 5.67 3.7 5.34 2 5 C2.99 4.67 3.98 4.34 5 4 C5 3.34 5 2.68 5 2 C3.35 1.67 1.7 1.34 0 1 C0 0.67 0 0.34 0 0 Z " fill="#3A384A" transform="translate(441,297)"/>
<path d="M0 0 C1.5625 1.75 1.5625 1.75 3 4 C2.6875 6.25 2.6875 6.25 2 8 C1.01 8 0.02 8 -1 8 C-1.33 6.68 -1.66 5.36 -2 4 C-1.34 4 -0.68 4 0 4 C0 2.68 0 1.36 0 0 Z " fill="#3B3B4D" transform="translate(425,316)"/>
<path d="M0 0 C0 3.20395416 -0.74335022 5.09399739 -2 8 C-2.33 7.34 -2.66 6.68 -3 6 C-4.65 6.66 -6.3 7.32 -8 8 C-5.33333333 5.33333333 -2.66666667 2.66666667 0 0 Z " fill="#504D5E" transform="translate(310,289)"/>
<path d="M0 0 C2.64 0 5.28 0 8 0 C7.34 1.98 6.68 3.96 6 6 C5.34 5.34 4.68 4.68 4 4 C4 3.01 4 2.02 4 1 C2.68 0.67 1.36 0.34 0 0 Z " fill="#101027" transform="translate(379,323)"/>
</svg>
